<svg width="108" height="108" viewBox="0 0 108 108" xmlns="http://www.w3.org/2000/svg">
  <!-- Hintergrund-Layer (wird von Android beschnitten) -->
  <rect width="108" height="108" fill="#4285F4"/>
  
  <!-- Zentraler Safe-Zone-Inhalt (skaliert auf ca. 60-65%) -->
  <g transform="translate(19, 19) scale(0.7)">
    <!-- Location Pin -->
    <path d="M50 20C38 20 28 30 28 42C28 57 50 80 50 80S72 57 72 42C72 30 62 20 50 20Z" fill="white"/>
    
    <!-- Innerer Punkt -->
    <circle cx="50" cy="42" r="5" fill="#4285F4"/>
    
    <!-- Schallwellen -->
    <path d="M78 30Q85 42 78 54" stroke="white" stroke-width="4" fill="none" stroke-linecap="round"/>
    <path d="M86 22Q98 42 86 62" stroke="white" stroke-width="3" fill="none" stroke-linecap="round" opacity="0.6"/>
    
    <!-- KI Sparkle (etwas prominenter) -->
    <path d="M25 25L27 32L34 34L27 36L25 43L23 36L16 34L23 32Z" fill="#FBBC04"/>
  </g>
</svg>
